<svg width="24" height="24" viewBox="0 0 24 24" fill="none" xmlns="http://www.w3.org/2000/svg">
<path fill-rule="evenodd" clip-rule="evenodd" d="M4.46967 4.46967C4.76256 4.17678 5.23744 4.17678 5.53033 4.46967L19.5303 18.4697C19.8232 18.7626 19.8232 19.2374 19.5303 19.5303C19.2374 19.8232 18.7626 19.8232 18.4697 19.5303L4.46967 5.53033C4.17678 5.23744 4.17678 4.76256 4.46967 4.46967Z" fill="white"/>
<path d="M3.80042 3.76358L20.1992 20.1624" stroke="white" stroke-width="1.5" stroke-linecap="round"/>
<circle cx="12" cy="12" r="3.23684" stroke="white" stroke-width="1.5"/>
<path d="M20.5947 13.6332C18.6464 15.6501 15.4805 18.1832 12 18.1832C8.51957 18.1832 5.35361 15.6501 3.40533 13.6332C2.50668 12.703 2.50668 11.297 3.40533 10.3667C5.35361 8.34987 8.51957 5.81677 12 5.81677C15.4805 5.81677 18.6464 8.34987 20.5947 10.3667C21.4934 11.297 21.4934 12.703 20.5947 13.6332Z" stroke="white" stroke-width="1.5"/>
</svg>
